/* XPM */
static char * arch_xpm[] = {
"15 15 8 1",
" 	c None",
".	c #1793D0",
"+	c #1792D1",
"@	c #1794D0",
"#	c #1893D0",
"$	c #1693D0",
"%	c #1792CF",
"&	c #1793D1",
"               ",
"       .       ",
"      +.@      ",
"      ...      ",
"      #..$     ",
"     .....     ",
"    $.....@    ",
"    .......    ",
"   ...   ..%   ",
"   ...   ...   ",
"  &...   ..@   ",
"  ..       &.  ",
"               ",
"               ",
"               "};
