/* XPM */
static char * battery_xpm[] = {
"8 16 18 1",
" 	c None",
".	c #000000",
"+	c #77777B",
"@	c #77777B",
"#	c #77777B",
"$	c #77777B",
"%	c #77777B",
"&	c #77777B",
"*	c #77777B",
"=	c #77777B",
"-	c #77777B",
";	c #77777B",
">	c #77777B",
",	c #77777B",
"'	c #77777B",
")	c #77777B",
"!	c #77777B",
"~	c #77777B",
"   ++   ",
"  +  +  ",
"++++++++",
"+ ++++ +",
"++++++++",
"++++++++",
"+ ++++ +",
"+ ++++ +",
"++++++++",
"++++++++",
"+      +",
"++++++++",
"++++++++",
"++++++++",
"+      +",
" ++++++ "};
