/* XPM */
static char * linux_xpm[] = {
"15 15 47 1",
" 	c None",
".	c #000000",
"+	c #362C0B",
"@	c #D7B02B",
"#	c #DDB52C",
"$	c #715D17",
"%	c #635C44",
"&	c #DCB736",
"*	c #EAC33E",
"=	c #D5C797",
"-	c #030303",
";	c #8E8E8E",
">	c #F9F9F9",
",	c #565656",
"'	c #181818",
")	c #F4F4F4",
"!	c #C2C2C2",
"~	c #828282",
"{	c #393939",
"]	c #E1E1E1",
"^	c #666666",
"/	c #5B4B12",
"(	c #E4E4E4",
"_	c #F9F7F2",
":	c #787362",
"<	c #070601",
"[	c #FFD133",
"}	c #7F6B26",
"|	c #C4C4C4",
"1	c #EDE0B2",
"2	c #C6A32A",
"3	c #675415",
"4	c #EEC32F",
"5	c #F7CA31",
"6	c #625A3F",
"7	c #A99961",
"8	c #FFD134",
"9	c #DAB32F",
"0	c #8F8F8D",
"a	c #868686",
"b	c #383838",
"c	c #7C6619",
"d	c #FFD033",
"e	c #E3BA2D",
"f	c #987D1E",
"g	c #FDD032",
"h	c #FFD234",
"      ...      ",
"     .....     ",
"     .....     ",
"     +@#$.     ",
"     %&*=-     ",
"     ;>>>,.    ",
"    ')>>>!..   ",
"    ~>>>>>{.   ",
"   .]>>>>>^..  ",
"   /(>>>>_:.<  ",
"  [[}|>>>1234  ",
" [[[56>>>7[[[8 ",
" [[[[90abc[[[  ",
"   d[e   fgh   ",
"               "};
